<svg width="62" height="62" viewBox="0 0 62 62" fill="none" xmlns="http://www.w3.org/2000/svg">
<path d="M26.6043 55.7758H13.7744V6.31503H48.2014V15.5545C48.2014 16.2205 48.7463 16.7654 49.4123 16.7654C50.0783 16.7654 50.6232 16.2205 50.6232 15.5545V5.81855C50.6232 4.75898 49.7574 3.89316 48.6978 3.89316H13.2779C12.2184 3.89316 11.3525 4.75898 11.3525 5.81855V56.2783C11.3525 57.3379 12.2184 58.2037 13.2779 58.2037H26.6043C27.2703 58.2037 27.8152 57.6588 27.8152 56.9928C27.8152 56.3268 27.2764 55.7758 26.6043 55.7758Z" fill="url(#paint0_linear_4_57)"/>
<path d="M32.1141 31.9143H17.8008C17.1348 31.9143 16.5898 32.4592 16.5898 33.1252C16.5898 33.7912 17.1348 34.3361 17.8008 34.3361H32.108C32.774 34.3361 33.3189 33.7912 33.3189 33.1252C33.3189 32.4592 32.7801 31.9143 32.1141 31.9143ZM23.6375 47.9289H17.8008C17.1348 47.9289 16.5898 48.4738 16.5898 49.1398C16.5898 49.8059 17.1348 50.3508 17.8008 50.3508H23.6314C24.2975 50.3508 24.8424 49.8059 24.8424 49.1398C24.8424 48.4738 24.3035 47.9289 23.6375 47.9289ZM32.1141 40.3H17.8008C17.1348 40.3 16.5898 40.8449 16.5898 41.5109C16.5898 42.177 17.1348 42.7219 17.8008 42.7219H32.108C32.774 42.7219 33.3189 42.177 33.3189 41.5109C33.3189 40.8449 32.7801 40.3 32.1141 40.3Z" fill="url(#paint1_linear_4_57)"/>
<path d="M58.2098 54.3105C58.2098 54.2803 58.2098 54.25 58.2037 54.2258L58.1916 49.3881C58.1855 47.8805 56.9625 46.6574 55.4549 46.6574L48.5162 46.6756V29.4258H50.6051C52.3428 29.4258 53.7535 28.015 53.7535 26.2773V22.3418C53.7535 20.6041 52.3428 19.1934 50.6051 19.1934H39.8096C38.0719 19.1934 36.6611 20.6041 36.6611 22.3418V26.2773C36.6611 28.015 38.0719 29.4258 39.8096 29.4258H41.7228V46.6938L34.7055 46.7119C33.1978 46.718 31.9748 47.9471 31.9748 49.4547L31.9869 55.1764H32.0051L32.0111 56.7385C32.0111 57.5498 32.6771 58.2098 33.4885 58.2037L56.7506 58.1432C57.5619 58.1432 58.2219 57.4771 58.2158 56.6658L58.2098 54.3105ZM39.8096 27.0039C39.41 27.0039 39.083 26.677 39.083 26.2773V22.3418C39.083 21.9422 39.41 21.6152 39.8096 21.6152H50.6051C51.0047 21.6152 51.3316 21.9422 51.3316 22.3418V26.2773C51.3316 26.677 51.0047 27.0039 50.6051 27.0039H39.8096ZM44.1447 29.4258H46.0943V46.6816L44.1447 46.6877V29.4258ZM34.7115 49.1338L41.7228 49.1156V49.2246H48.5162V49.0975L55.4549 49.0793C55.6305 49.0793 55.7697 49.2186 55.7697 49.3941L55.7758 52.6939L34.4027 52.7484L34.3967 49.4486C34.3967 49.273 34.5359 49.1338 34.7115 49.1338Z" fill="url(#paint2_linear_4_57)"/>
<path d="M30.9697 28.0998H18.9391C17.6434 28.0998 16.5898 27.0463 16.5898 25.7506V11.8127C16.5898 10.517 17.6434 9.46347 18.9391 9.46347H30.9697C32.2654 9.46347 33.3189 10.517 33.3189 11.8127V25.7506C33.3189 27.0463 32.2654 28.0998 30.9697 28.0998Z" fill="#4178D4"/>
<defs>
<linearGradient id="paint0_linear_4_57" x1="30.9879" y1="3.89316" x2="30.9879" y2="58.2037" gradientUnits="userSpaceOnUse">
<stop stop-color="#52B6DF"/>
<stop offset="1" stop-color="#4178D4"/>
</linearGradient>
<linearGradient id="paint1_linear_4_57" x1="24.9544" y1="31.9143" x2="24.9544" y2="50.3508" gradientUnits="userSpaceOnUse">
<stop stop-color="#52B6DF"/>
<stop offset="1" stop-color="#4178D4"/>
</linearGradient>
<linearGradient id="paint2_linear_4_57" x1="45.0953" y1="19.1934" x2="45.0953" y2="58.2038" gradientUnits="userSpaceOnUse">
<stop stop-color="#52B6DF"/>
<stop offset="1" stop-color="#4178D4"/>
</linearGradient>
</defs>
</svg>
