<svg width="24" height="24" viewBox="0 0 24 24" fill="none" xmlns="http://www.w3.org/2000/svg">
<path d="M23.519 13.2803L21.5249 6.63533C20.9403 4.68864 19.67 2.97876 17.9157 1.77748C16.1615 0.576208 14.024 -0.0475238 11.843 0.00543362C9.66209 0.058391 7.56283 0.784998 5.87895 2.06976C4.19508 3.35452 3.02322 5.1237 2.54964 7.09608L1.00572 13.5262C0.835185 14.2367 0.839128 14.9736 1.01726 15.6825C1.1954 16.3914 1.54317 17.0542 2.03492 17.622C2.52666 18.1897 3.14981 18.648 3.85837 18.9628C4.56692 19.2777 5.34279 19.4411 6.12869 19.4411H7.29791C7.5388 20.5398 8.18241 21.5276 9.11969 22.2371C10.057 22.9466 11.2303 23.3342 12.4408 23.3342C13.6513 23.3342 14.8246 22.9466 15.7619 22.2371C16.6992 21.5276 17.3428 20.5398 17.5837 19.4411H18.4633C19.2723 19.4412 20.0704 19.268 20.7951 18.9351C21.5199 18.6022 22.1518 18.1186 22.6414 17.5222C23.131 16.9257 23.4651 16.2324 23.6175 15.4966C23.7699 14.7607 23.7366 14.0022 23.5201 13.2803H23.519ZM12.4408 21.3852C11.7919 21.3827 11.1597 21.1946 10.6306 20.8466C10.1016 20.4986 9.70152 20.0077 9.48522 19.4411H15.3964C15.1801 20.0077 14.7801 20.4986 14.251 20.8466C13.7219 21.1946 13.0897 21.3827 12.4408 21.3852ZM20.9696 16.3451C20.6772 16.7045 20.2982 16.9957 19.863 17.1956C19.4277 17.3956 18.9481 17.4988 18.4622 17.497H6.12869C5.6572 17.4969 5.19175 17.3988 4.7667 17.2098C4.34164 17.0209 3.96783 16.7459 3.67286 16.4053C3.37788 16.0647 3.16927 15.667 3.06243 15.2417C2.95558 14.8164 2.95323 14.3743 3.05554 13.9481L4.59841 7.51698C4.97033 5.96773 5.89075 4.57809 7.21337 3.56895C8.53599 2.55981 10.1849 1.9891 11.8979 1.94754C13.611 1.90597 15.2899 2.39595 16.6678 3.33957C18.0456 4.28318 19.0433 5.62629 19.5023 7.15538L21.4965 13.8003C21.6283 14.2332 21.6493 14.6886 21.5578 15.1304C21.4664 15.5721 21.265 15.9881 20.9696 16.3451Z" fill="#64748B"/>
</svg>
