<svg width="32" height="31" viewBox="0 0 32 31" fill="none" xmlns="http://www.w3.org/2000/svg">
<path d="M8 25C9.10457 25 10 25.8955 10 27C10 28.1045 9.10457 29 8 29C6.89543 29 6 28.1045 6 27C6 25.8955 6.89543 25 8 25Z" stroke="#64748B" stroke-width="1.75"/>
<path d="M19 25C20.1045 25 21 25.8953 21 27C21 28.1045 20.1045 29 19 29C17.8955 29 17 28.1045 17 27C17 25.8953 17.8955 25 19 25Z" stroke="#64748B" stroke-width="1.75"/>
<path d="M14.5 18V15.5M14.5 15.5V13M14.5 15.5H17M14.5 15.5H12" stroke="#64748B" stroke-width="1.75" stroke-linecap="round"/>
<path d="M1 5L1.32995 5.1249C2.97406 5.74725 3.79613 6.05843 4.26633 6.79925C4.73652 7.54009 4.73652 8.52411 4.73652 10.4922V14.1936C4.73652 18.1942 4.81641 19.5143 5.91081 20.7572C7.00521 22 8.76662 22 12.2895 22H13.6316M18.9879 22C20.9597 22 21.9456 22 22.6425 21.3885C23.3393 20.7771 23.5384 19.7375 23.9364 17.6582L24.5678 14.3605C25.0062 11.9954 25.2254 10.8129 24.6646 10.028C24.1039 9.2432 22.188 9.2432 20.0595 9.2432H12.3981M4.73652 9.2432H7.31579" stroke="#64748B" stroke-width="1.75" stroke-linecap="round"/>
<circle cx="25" cy="7" r="7" fill="#F74141"/>
<path d="M24.3594 7.92578V8.73828H20.2617L20.2188 8.11328L22.6289 4.3125H23.4531L22.5625 5.82422L21.2695 7.92578H24.3594ZM23.6836 4.3125V10H22.6484V4.3125H23.6836ZM26.0039 7.38281L25.1797 7.18359L25.4961 4.3125H28.625V5.16797H26.3516L26.2031 6.49609C26.2839 6.44661 26.401 6.39714 26.5547 6.34766C26.7109 6.29557 26.8867 6.26953 27.082 6.26953C27.3529 6.26953 27.5951 6.3138 27.8086 6.40234C28.0221 6.48828 28.2031 6.61328 28.3516 6.77734C28.5026 6.94141 28.6159 7.14193 28.6914 7.37891C28.7695 7.61328 28.8086 7.87891 28.8086 8.17578C28.8086 8.4362 28.7695 8.68099 28.6914 8.91016C28.6159 9.13672 28.5 9.33854 28.3438 9.51562C28.1875 9.6901 27.9909 9.82812 27.7539 9.92969C27.5169 10.0286 27.2383 10.0781 26.918 10.0781C26.6758 10.0781 26.4427 10.043 26.2188 9.97266C25.9974 9.89974 25.7982 9.79427 25.6211 9.65625C25.444 9.51562 25.3021 9.34375 25.1953 9.14062C25.0911 8.9375 25.0339 8.70443 25.0234 8.44141H26.043C26.0612 8.61589 26.1081 8.76432 26.1836 8.88672C26.2591 9.00911 26.3581 9.10286 26.4805 9.16797C26.6055 9.23307 26.75 9.26562 26.9141 9.26562C27.0625 9.26562 27.1901 9.23828 27.2969 9.18359C27.4062 9.1263 27.4961 9.04688 27.5664 8.94531C27.6367 8.84375 27.6888 8.72396 27.7227 8.58594C27.7565 8.44792 27.7734 8.29688 27.7734 8.13281C27.7734 7.97396 27.7539 7.82943 27.7148 7.69922C27.6758 7.56641 27.6159 7.45182 27.5352 7.35547C27.4544 7.25911 27.3529 7.1849 27.2305 7.13281C27.1107 7.08073 26.9701 7.05469 26.8086 7.05469C26.5924 7.05469 26.4258 7.08724 26.3086 7.15234C26.194 7.21745 26.0924 7.29427 26.0039 7.38281Z" fill="white"/>
</svg>
