<svg width="161" height="160" viewBox="0 0 161 160" fill="none" xmlns="http://www.w3.org/2000/svg">
<g clip-path="url(#clip0_752_74)">
<path opacity="0.2" d="M142.301 52.9557C155.794 78.4583 149.122 113.598 132.219 130.501C115.464 147.404 88.3293 146.07 65.9398 143.401C43.4021 140.732 25.6092 136.877 16.5644 124.422C7.37138 111.968 7.07483 91.2096 16.1196 68.2276C25.0161 45.3939 43.1056 20.3362 69.2019 15.7398C95.1499 11.2917 128.808 27.3049 142.301 52.9557Z" fill="#86CCE9"/>
<path d="M123.461 60.569C132.906 78.4208 128.235 103.019 116.403 114.851C104.674 126.683 85.6805 125.749 70.0079 123.881C54.2315 122.012 41.7764 119.314 35.4451 110.596C29.01 101.877 28.8024 87.3467 35.1337 71.2593C41.3612 55.2757 54.0239 37.7353 72.2913 34.5178C90.455 31.4042 114.016 42.6134 123.461 60.569Z" fill="#52B6DF"/>
<g clip-path="url(#clip1_752_74)">
<path d="M92.662 60.28L80.132 56.102C79.7217 55.9654 79.2783 55.9654 78.868 56.102L66.338 60.28C64.3458 60.9418 62.6128 62.2145 61.3853 63.9174C60.1577 65.6203 59.4981 67.6668 59.5 69.766V80C59.5 95.126 77.9 103.48 78.688 103.828C78.9436 103.942 79.2203 104 79.5 104C79.7797 104 80.0564 103.942 80.312 103.828C81.1 103.48 99.5 95.126 99.5 80V69.766C99.5019 67.6668 98.8423 65.6203 97.6147 63.9174C96.3872 62.2145 94.6542 60.9418 92.662 60.28ZM95.5 80C95.5 90.91 82.862 98.066 79.5 99.778C76.134 98.072 63.5 90.938 63.5 80V69.766C63.5001 68.5065 63.8966 67.2791 64.6331 66.2575C65.3697 65.2359 66.4091 64.472 67.604 64.074L79.5 60.108L91.396 64.074C92.5909 64.472 93.6303 65.2359 94.3669 66.2575C95.1035 67.2791 95.4999 68.5065 95.5 69.766V80Z" fill="white"/>
<path d="M86.1001 72.6L77.7241 81L73.2361 76.32C73.056 76.1231 72.8383 75.9642 72.5958 75.8527C72.3533 75.7412 72.091 75.6794 71.8243 75.6709C71.5575 75.6623 71.2918 75.7072 71.0427 75.803C70.7936 75.8987 70.5662 76.0434 70.3738 76.2284C70.1815 76.4134 70.0281 76.635 69.9227 76.8802C69.8174 77.1254 69.7621 77.3892 69.7603 77.656C69.7585 77.9229 69.81 78.1874 69.912 78.4341C70.014 78.6807 70.1643 78.9044 70.3541 79.092L74.9661 83.892C75.31 84.2635 75.7257 84.5614 76.1881 84.7677C76.6505 84.9739 77.1499 85.0843 77.6561 85.092H77.7221C78.2182 85.0937 78.7097 84.9967 79.168 84.8069C79.6264 84.617 80.0424 84.338 80.3921 83.986L88.9361 75.442C89.1227 75.2558 89.2708 75.0347 89.3719 74.7912C89.4731 74.5478 89.5253 74.2868 89.5255 74.0231C89.5258 73.7595 89.4742 73.4984 89.3736 73.2548C89.2729 73.0111 89.1253 72.7896 88.9391 72.603C88.7529 72.4164 88.5317 72.2683 88.2883 72.1672C88.0448 72.066 87.7838 72.0138 87.5202 72.0136C87.2566 72.0133 86.9955 72.0649 86.7518 72.1655C86.5081 72.2662 86.2867 72.4138 86.1001 72.6Z" fill="white"/>
</g>
<circle opacity="0.5" cx="156" cy="105.5" r="4.5" fill="#52B6DF"/>
<circle opacity="0.5" cx="9.5" cy="125" r="9" fill="#52B6DF"/>
<circle opacity="0.5" cx="16" cy="42.5" r="3.5" fill="#52B6DF"/>
</g>
<defs>
<clipPath id="clip0_752_74">
<rect width="160" height="160" fill="white" transform="translate(0.5)"/>
</clipPath>
<clipPath id="clip1_752_74">
<rect width="48" height="48" fill="white" transform="translate(55.5 56)"/>
</clipPath>
</defs>
</svg>
