<svg xmlns="http://www.w3.org/2000/svg" shape-rendering="geometricPrecision" text-rendering="geometricPrecision" image-rendering="optimizeQuality" fill-rule="evenodd" clip-rule="evenodd" viewBox="0 0 512 512"><circle fill="#FBD433" transform="matrix(2.64389 -.70843 .70843 2.64389 256 256)" r="93.505"/><path fill="#40270E" d="M182.25 103.399c17.914 0 32.435 27.514 32.435 61.451 0 33.939-14.521 61.454-32.435 61.454-17.913 0-32.432-27.515-32.432-61.454 0-33.937 14.519-61.451 32.432-61.451zM329.742 103.399c17.914 0 32.435 27.514 32.435 61.451 0 33.939-14.521 61.454-32.435 61.454-17.913 0-32.434-27.515-32.434-61.454 0-33.937 14.521-61.451 32.434-61.451zM118.959 278.291c69.505-2.158 212.527 1.386 274.08 0 0 165.703-274.08 181.374-274.08 0z"/><path fill="#fff" d="M118.959 277.573h274.08c.785 58.938-273.258 58.213-274.08 0z"/><path fill="red" d="M160.834 377.761c46.294 40.045 132.671 41.615 184.568 0-28.258-32.14-59.077-33.112-93.282-7.846-35.264-28.197-58.875-28.995-91.286 7.846z"/></svg>