<svg width="62" height="63" viewBox="0 0 62 63" fill="none" xmlns="http://www.w3.org/2000/svg">
<g clip-path="url(#clip0_4_87)">
<path fill-rule="evenodd" clip-rule="evenodd" d="M14.5948 16.8563L20.7757 23.0371C21.8284 24.0899 21.8284 25.7966 20.7757 26.8494C19.723 27.902 18.0162 27.902 16.9634 26.8494L6.18083 16.0668C5.12813 15.014 5.12813 13.3072 6.18083 12.2545L16.9634 1.47191C18.0162 0.419194 19.723 0.419194 20.7757 1.47191C21.8284 2.52463 21.8284 4.23142 20.7757 5.28415L14.5948 11.465H31C45.1433 11.465 56.6087 22.9304 56.6087 37.0737C56.6087 51.217 45.1433 62.6824 31 62.6824C16.8567 62.6824 5.3913 51.217 5.3913 37.0737C5.3913 35.5849 6.5982 34.378 8.08696 34.378C9.57571 34.378 10.7826 35.5849 10.7826 37.0737C10.7826 48.2393 19.8342 57.2911 31 57.2911C42.1657 57.2911 51.2174 48.2393 51.2174 37.0737C51.2174 25.9079 42.1657 16.8563 31 16.8563H14.5948ZM32.3478 24.9432V35.7259H37.7391C39.2279 35.7259 40.4348 36.9327 40.4348 38.4215C40.4348 39.9103 39.2279 41.1172 37.7391 41.1172H29.6522C28.1634 41.1172 26.9565 39.9103 26.9565 38.4215V24.9432C26.9565 23.4545 28.1634 22.2476 29.6522 22.2476C31.141 22.2476 32.3478 23.4545 32.3478 24.9432Z" fill="url(#paint0_linear_4_87)"/>
</g>
<defs>
<linearGradient id="paint0_linear_4_87" x1="31" y1="0.682373" x2="31" y2="62.6824" gradientUnits="userSpaceOnUse">
<stop stop-color="#52B6DF"/>
<stop offset="1" stop-color="#4178D4"/>
</linearGradient>
<clipPath id="clip0_4_87">
<rect width="62" height="62" fill="white" transform="translate(0 0.682373)"/>
</clipPath>
</defs>
</svg>
