<svg width="60" height="60" viewBox="0 0 60 60" fill="none" xmlns="http://www.w3.org/2000/svg">
<path d="M18.7443 18.54C15.636 18.54 13.1164 16.0203 13.1164 12.912V3.85876H24.372V12.912C24.3723 16.0202 21.8525 18.54 18.7443 18.54Z" fill="white"/>
<path d="M41.2559 18.54C38.1476 18.54 35.6279 16.0203 35.6279 12.912V3.85876H46.8836V12.912C46.8836 16.0202 44.3642 18.54 41.2559 18.54Z" fill="white"/>
<path d="M16.638 56.1417C20.4566 56.1417 23.5522 53.0461 23.5522 49.2275C23.5522 45.4089 20.4566 42.3133 16.638 42.3133C12.8194 42.3133 9.72379 45.4089 9.72379 49.2275C9.72379 53.0461 12.8194 56.1417 16.638 56.1417Z" fill="white"/>
<path d="M43.3608 56.1417C47.1794 56.1417 50.275 53.0461 50.275 49.2275C50.275 45.4089 47.1794 42.3133 43.3608 42.3133C39.5422 42.3133 36.4466 45.4089 36.4466 49.2275C36.4466 53.0461 39.5422 56.1417 43.3608 56.1417Z" fill="white"/>
<path d="M53.8247 1.99805H46.8836H35.6279H24.372H13.1164H6.17534C2.77032 1.99805 0 4.76838 0 8.17339V12.9119C0 16.4657 2.48919 19.4471 5.81534 20.2096V31.7454V49.3359C5.81534 50.3635 6.64854 51.1966 7.67605 51.1966H8.08984C8.98609 55.0895 12.4772 58.0019 16.6385 58.0019C20.7997 58.0019 24.2908 55.0895 25.1871 51.1966H34.813C35.7093 55.0895 39.2007 58.0019 43.3617 58.0019C47.5226 58.0019 51.0138 55.0895 51.9103 51.1966H52.3241C53.3516 51.1966 54.1848 50.3636 54.1848 49.3359V31.7454V27.8301C54.1848 26.8025 53.3516 25.9694 52.3241 25.9694C51.2966 25.9694 50.4634 26.8024 50.4634 27.8301V29.8847H44.8853C43.8578 29.8847 43.0246 30.7177 43.0246 31.7454C43.0246 32.773 43.8578 33.6061 44.8853 33.6061H50.4634V44.0845C48.8673 41.8868 46.2793 40.4541 43.3615 40.4541C39.1236 40.4541 35.5778 43.4743 34.7636 47.4755H25.2362C24.4217 43.4745 20.8761 40.4541 16.6382 40.4541C13.7205 40.4541 11.1325 41.887 9.5364 44.0846V33.6062H33.7211C34.7486 33.6062 35.5818 32.7733 35.5818 31.7455C35.5818 30.7178 34.7486 29.8848 33.7211 29.8848H9.53664V18.5398C9.53664 17.5122 8.70343 16.6791 7.67593 16.6791C7.64429 16.6791 7.61358 16.6823 7.5823 16.6838C7.55101 16.6823 7.5203 16.6791 7.48866 16.6791C5.41127 16.6791 3.72119 14.989 3.72119 12.9119V8.17339C3.72119 6.82034 4.82217 5.71936 6.17522 5.71936H11.2556V12.9119C11.2556 17.0411 14.615 20.4005 18.7442 20.4005C20.9854 20.4005 22.9985 19.4094 24.3719 17.844C25.7455 19.4094 27.7585 20.4005 29.9999 20.4005C32.2412 20.4005 34.2543 19.4094 35.6278 17.844C37.0014 19.4094 39.0144 20.4005 41.2556 20.4005C43.4969 20.4005 45.5099 19.4094 46.8835 17.844C48.2571 19.4094 50.2701 20.4005 52.5112 20.4005C53.5387 20.4005 54.3719 19.5676 54.3719 18.5398C54.3719 17.5121 53.5387 16.6791 52.5112 16.6791C50.4339 16.6791 48.7441 14.989 48.7441 12.9119V5.71936H53.8244C55.1775 5.71936 56.2785 6.82034 56.2785 8.17339V12.9119C56.2785 13.9395 57.1117 14.7726 58.1392 14.7726C59.1667 14.7726 59.9999 13.9396 59.9999 12.9119V8.17339C60.0002 4.76838 57.2299 1.99805 53.8247 1.99805ZM43.3618 44.1752C46.1479 44.1752 48.4144 46.4418 48.4144 49.2278C48.4144 52.0139 46.1478 54.2805 43.3618 54.2805C40.5757 54.2805 38.309 52.0139 38.309 49.2278C38.309 46.4418 40.5756 44.1752 43.3618 44.1752ZM16.6385 44.1752C19.4246 44.1752 21.6913 46.4418 21.6913 49.2278C21.6913 52.0139 19.4244 54.2805 16.6385 54.2805C13.8526 54.2805 11.5858 52.0139 11.5858 49.2278C11.5858 46.4418 13.8522 44.1752 16.6385 44.1752ZM22.5115 12.912C22.5115 14.9893 20.8216 16.6792 18.7443 16.6792C16.6671 16.6792 14.9771 14.9892 14.9771 12.912V5.71936H22.5115V12.912ZM33.7674 12.912C33.7674 14.9893 32.0773 16.6792 30.0001 16.6792C27.923 16.6792 26.2329 14.9892 26.2329 12.912V5.71936H33.7675L33.7674 12.912ZM45.0231 12.912C45.0231 14.9893 43.3331 16.6792 41.2559 16.6792C39.1786 16.6792 37.4888 14.9892 37.4888 12.912V5.71936H45.0231V12.912Z" fill="url(#paint0_linear_144_2253)"/>
<defs>
<linearGradient id="paint0_linear_144_2253" x1="29.9999" y1="1.99805" x2="29.9999" y2="58.0019" gradientUnits="userSpaceOnUse">
<stop stop-color="#52B6DF"/>
<stop offset="1" stop-color="#4178D4"/>
</linearGradient>
</defs>
</svg>
