<?xml version="1.0" encoding="UTF-8"?>
<svg version="1.1" xmlns="http://www.w3.org/2000/svg" width="48" height="48">
<path d="M0 0 C11.22 0 22.44 0 34 0 C34 11.22 34 22.44 34 34 C22.78 34 11.56 34 0 34 C0 22.78 0 11.56 0 0 Z " fill="#E64C4C" transform="translate(7,7)"/>
<path d="M0 0 C2.37948772 0.17625835 3.70225849 0.69719773 5.37890625 2.40234375 C6.62115486 3.90649092 7.81376056 5.45129851 9 7 C12.7952131 5.50902342 14.61042731 3.24299151 17 0 C18.32 0.33 19.64 0.66 21 1 C21 4 21 4 19.46875 5.60546875 C18.8190625 6.12753906 18.169375 6.64960938 17.5 7.1875 C16.8503125 7.71730469 16.200625 8.24710938 15.53125 8.79296875 C15.0259375 9.19128906 14.520625 9.58960938 14 10 C15.27379719 12.73806872 16.65243188 14.96597375 18.625 17.25 C19.40875 18.1575 20.1925 19.065 21 20 C20.01 20.66 19.02 21.32 18 22 C15.69 19.69 13.38 17.38 11 15 C8.02263428 16.48868286 6.16561364 17.53878822 3.75 19.625 C2.8425 20.40875 1.935 21.1925 1 22 C0.34 21.01 -0.32 20.02 -1 19 C2.465 15.535 2.465 15.535 6 12 C3.9957983 7.9915966 2.50944037 6.58590343 -1 4 C-0.67 2.68 -0.34 1.36 0 0 Z " fill="#F4EBEE" transform="translate(14,13)"/>
<path d="M0 0 C0.33 0 0.66 0 1 0 C1 1.98 1 3.96 1 6 C-10.22 6 -21.44 6 -33 6 C-32.67 4.68 -32.34 3.36 -32 2 C-31.01 2.33 -30.02 2.66 -29 3 C-27.5459375 2.7525 -27.5459375 2.7525 -26.0625 2.5 C-23.01725504 2.00281715 -21.87464883 2.25988519 -19 3 C-17.48123046 3.08949422 -15.95889529 3.13014855 -14.4375 3.125 C-13.67308594 3.12757812 -12.90867187 3.13015625 -12.12109375 3.1328125 C-9.81001505 3.07907384 -9.81001505 3.07907384 -7 2 C-4.3125 2.4375 -4.3125 2.4375 -2 3 C-1.34 2.01 -0.68 1.02 0 0 Z " fill="#CD1413" transform="translate(40,35)"/>
<path d="M0 0 C7.59 0 15.18 0 23 0 C23 8.91 23 17.82 23 27 C18.70400706 18.40801413 20.37201145 11.1933471 22 2 C14.74 1.67 7.48 1.34 0 1 C0 0.67 0 0.34 0 0 Z " fill="#DC4645" transform="translate(18,7)"/>
<path d="M0 0 C0.66 0 1.32 0 2 0 C2.22944429 3.14465637 2.42956557 6.2905615 2.625 9.4375 C2.68945312 10.31599609 2.75390625 11.19449219 2.8203125 12.09960938 C3.17713109 18.14322424 2.56019569 23.14628868 1 29 C0.67 29 0.34 29 0 29 C0 19.43 0 9.86 0 0 Z " fill="#D93736" transform="translate(7,7)"/>
<path d="M0 0 C6.93 0 13.86 0 21 0 C21.33 0.66 21.66 1.32 22 2 C15.2575691 2.99478489 8.73468684 3.3239128 2 2 C1.34 1.34 0.68 0.68 0 0 Z M-2 1 C-1.34 1.33 -0.68 1.66 0 2 C-0.99 2.66 -1.98 3.32 -3 4 C-2.67 3.01 -2.34 2.02 -2 1 Z " fill="#E65A59" transform="translate(13,8)"/>
<path d="M0 0 C0.33 0 0.66 0 1 0 C1 5.94 1 11.88 1 18 C-1.70447571 12.59104859 -2.61330702 8.28967953 -1.0625 2.5 C-0.711875 1.675 -0.36125 0.85 0 0 Z " fill="#D6302F" transform="translate(40,16)"/>
</svg>
